<?xml version="1.0" encoding="UTF-8" standalone="no" ?>
<!DOCTYPE svg PUBLIC "-//W3C//DTD SVG 1.1//EN" "http://www.w3.org/Graphics/SVG/1.1/DTD/svg11.dtd">
<svg xmlns="http://www.w3.org/2000/svg" xmlns:xlink="http://www.w3.org/1999/xlink" version="1.1" width="225" height="38" viewBox="38.86 47.36 225 38" xml:space="preserve">
<desc>Created with Fabric.js 5.2.4</desc>
<defs>
</defs>
<g transform="matrix(1 0 0 1 112.5 19)" id="376ca518-e0b3-4a06-a22d-ba5f64826ff2"  >
<rect style="stroke: none; stroke-width: 1; stroke-dasharray: none; stroke-linecap: butt; stroke-dashoffset: 0; stroke-linejoin: miter; stroke-miterlimit: 4; fill: rgb(255,255,255); fill-rule: nonzero; opacity: 1; visibility: hidden;" vector-effect="non-scaling-stroke"  x="-112.5" y="-19" rx="0" ry="0" width="225" height="38" />
</g>
<g transform="matrix(Infinity NaN NaN Infinity 0 0)" id="cd1b1082-a190-419d-a843-c7d03fa19d6f"  >
</g>
<g transform="matrix(0.04 0 0 0.04 449.95 76)"  >
<g style="" vector-effect="non-scaling-stroke"   >
		<g transform="matrix(3.78 0 0 3.78 -364.63 0)" id="path886"  >
<path style="stroke: none; stroke-width: 0.264583; stroke-dasharray: none; stroke-linecap: butt; stroke-dashoffset: 0; stroke-linejoin: miter; stroke-miterlimit: 4; fill: rgb(72,124,255); fill-rule: nonzero; opacity: 1;" vector-effect="non-scaling-stroke"  transform=" translate(-46.18, -113.02)" d="M 56.494069 102.70358 Q 55.325669000000005 101.48438 53.446070000000006 100.67158 Q 51.56647000000001 99.858778 49.02647 99.858778 Q 45.876870000000004 99.858778 43.946470000000005 101.17958 Q 42.016070000000006 102.44958 42.016070000000006 104.63398000000001 Q 42.016070000000006 106.97078 45.724470000000004 108.24078 L 53.395270000000004 110.88238 Q 57.357669 112.20318 59.237269000000005 114.28598 Q 61.11686900000001 116.36878 61.11686900000001 119.41677999999999 Q 61.11686900000001 123.48077999999998 58.93246900000001 126.42717999999999 Q 56.748069000000015 129.32278 52.98887000000001 130.84678 Q 49.22967000000001 132.37078 44.50527000000001 132.37078 Q 39.17127000000001 132.37078 35.46287000000001 130.59278 Q 31.75447000000001 128.76398 29.92567000000001 125.46198000000001 Q 29.722470000000012 125.10638000000002 29.722470000000012 124.75078 Q 29.722470000000012 124.39518000000001 30.128870000000013 124.14118 L 34.14207000000001 121.70278 Q 34.497670000000014 121.44878 34.90407000000001 121.44878 Q 35.51367000000001 121.44878 36.021670000000015 122.10918 Q 37.34247000000001 123.73478 38.409270000000014 124.64918 Q 39.52687000000002 125.51278 41.10167000000001 125.96998 Q 42.72727000000001 126.42718 45.26727000000001 126.42718 Q 48.46767000000001 126.42718 50.448870000000014 125.25878 Q 52.430070000000015 124.03958 52.430070000000015 121.49958000000001 Q 52.430070000000015 120.22958000000001 51.515670000000014 119.41678 Q 50.601270000000014 118.55318 48.56927000000002 117.84198 L 41.152470000000015 115.35278000000001 Q 37.49487000000001 114.13358000000001 35.564470000000014 111.79678000000001 Q 33.68487000000002 109.40918 33.68487000000002 106.36118000000002 Q 33.68487000000002 102.60198000000003 35.81847000000002 99.70637800000002 Q 37.95207000000002 96.81077800000001 41.50807000000002 95.23597800000002 Q 45.11487000000002 93.66117800000002 49.38207000000002 93.66117800000002 Q 53.75087000000002 93.66117800000002 57.05286900000002 95.23597800000002 Q 60.405669000000024 96.75997800000002 62.234469000000026 99.19837800000002 Q 62.64086900000002 99.70637800000002 62.64086900000002 99.96037800000002 Q 62.64086900000002 100.21438000000002 62.28526900000002 100.41758000000002 L 57.76406900000002 103.41478000000002 Q 57.71326900000002 103.46558000000002 57.56086900000002 103.46558000000002 Q 57.25606900000002 103.46558000000002 56.49406900000002 102.70358000000002 z" stroke-linecap="round" />
</g>
		<g transform="matrix(3.78 0 0 3.78 -243.24 20.35)" id="path888"  >
<path style="stroke: none; stroke-width: 0.264583; stroke-dasharray: none; stroke-linecap: butt; stroke-dashoffset: 0; stroke-linejoin: miter; stroke-miterlimit: 4; fill: rgb(72,124,255); fill-rule: nonzero; opacity: 1;" vector-effect="non-scaling-stroke"  transform=" translate(-78.3, -118.4)" d="M 77.003775 132.37078 Q 73.396975 132.37078 70.602975 130.89758 Q 67.808975 129.42438 66.284975 126.78278 Q 64.760975 124.09038 64.760975 120.58518000000001 Q 64.760975 116.41958000000001 66.742175 112.71118000000001 Q 68.774175 108.95198000000002 72.279375 106.71678000000001 Q 75.835375 104.43078000000001 80.204175 104.43078000000001 Q 85.53817500000001 104.43078000000001 88.687775 107.58038000000002 Q 91.83737500000001 110.72998000000003 91.83737500000001 116.26718000000002 Q 91.83737500000001 117.74038000000003 91.63417500000001 119.11198000000003 Q 91.53257500000001 119.51838000000004 91.27857500000002 119.72158000000003 Q 91.07537500000002 119.87398000000003 90.46577500000002 119.87398000000003 L 73.34617500000002 119.87398000000003 Q 72.53337500000002 119.87398000000003 72.53337500000002 122.05838000000003 Q 72.53337500000002 124.44598000000003 74.05737500000002 125.76678000000003 Q 75.63217500000002 127.03678000000002 78.12137500000003 127.03678000000002 Q 80.05177500000003 127.03678000000002 81.72817500000002 126.22398000000003 Q 83.40457500000002 125.41118000000003 85.03017500000003 123.68398000000002 Q 85.28417500000003 123.42998000000001 85.53817500000002 123.42998000000001 Q 85.69057500000002 123.42998000000001 86.19857500000002 123.63318000000001 L 89.55137500000002 125.20798 Q 90.16097500000002 125.41118 90.16097500000002 125.86838 Q 90.16097500000002 126.12238 89.90697500000002 126.52878 Q 86.96057500000002 129.83078 84.01417500000002 131.10078 Q 81.11857500000002 132.37078 77.00377500000002 132.37078 z M 83.455375 115.80998 Q 84.674575 115.80998 84.674575 113.82878 Q 84.674575 111.89837999999999 83.506175 110.57758 Q 82.337775 109.20598 80.254975 109.20598 Q 77.714975 109.20598 75.73377500000001 111.13638 Q 73.803375 113.01598 73.498575 115.80998 z" stroke-linecap="round" />
</g>
		<g transform="matrix(3.78 0 0 3.78 -135.64 20.35)" id="path890"  >
<path style="stroke: none; stroke-width: 0.264583; stroke-dasharray: none; stroke-linecap: butt; stroke-dashoffset: 0; stroke-linejoin: miter; stroke-miterlimit: 4; fill: rgb(72,124,255); fill-rule: nonzero; opacity: 1;" vector-effect="non-scaling-stroke"  transform=" translate(-106.77, -118.4)" d="M 109.411 129.37358 Q 106.363 132.37078 101.0798 132.37078 Q 97.52380400000001 132.37078 95.491804 130.54198 Q 93.459804 128.71318 93.459804 125.76678 Q 93.459804 122.15997999999999 95.84740400000001 119.87398 Q 98.23500400000002 117.53718 101.8418 116.52118 Q 105.49940000000001 115.45438 109.411 115.35278 L 111.2398 115.20038 Q 112.205 115.20038 112.3574 114.23518 L 112.5098 113.16838 Q 112.5606 112.91438 112.5606 112.35558 Q 112.5606 109.30758 109.05539999999999 109.30758 Q 105.0422 109.30758 103.11179999999999 112.45718000000001 Q 102.85779999999998 112.81278 102.45139999999999 112.81278 Q 102.14659999999999 112.81278 101.99419999999999 112.76198000000001 L 97.066604 111.59358 Q 96.558604 111.49198 96.558604 110.93318000000001 Q 96.558604 110.42518000000001 96.81260400000001 109.91718 Q 100.1654 104.43078 109.46180000000001 104.43078 Q 114.94820000000001 104.43078 117.4882 106.36118 Q 120.07900000000001 108.29158000000001 120.07900000000001 111.69518000000001 Q 120.07900000000001 112.15238000000001 119.9774 113.16838000000001 L 117.4374 130.94838000000001 Q 117.3866 131.60878000000002 117.2342 131.76118000000002 Q 117.0818 131.86278000000001 116.523 131.86278000000001 L 111.2906 131.86278000000001 Q 110.7826 131.86278000000001 110.6302 131.55798000000001 Q 110.4778 131.25318000000001 110.427 130.54198000000002 L 110.4778 129.22118000000003 Q 110.4778 128.81478000000004 110.2238 128.81478000000004 Q 109.96979999999999 128.81478000000004 109.411 129.37358000000003 z M 111.5954 119.61998 L 111.5954 119.31518 Q 111.5954 119.11198 111.4938 119.06118 Q 111.39219999999999 118.95957999999999 111.08739999999999 119.01038 L 109.25859999999999 119.16278 Q 106.31219999999999 119.36598 103.77219999999998 120.63598 Q 101.23219999999998 121.90598 101.23219999999998 124.54758000000001 Q 101.23219999999998 125.76678000000001 102.09579999999998 126.52878000000001 Q 103.01019999999998 127.23998000000002 104.53419999999998 127.23998000000002 Q 105.85499999999999 127.23998000000002 107.02339999999998 126.88438000000002 Q 108.19179999999999 126.47798000000002 109.05539999999998 125.81758000000002 Q 110.93499999999997 124.39518000000002 111.13819999999998 122.92198000000002 z" stroke-linecap="round" />
</g>
		<g transform="matrix(3.78 0 0 3.78 -35.01 19.39)" id="path892"  >
<path style="stroke: none; stroke-width: 0.264583; stroke-dasharray: none; stroke-linecap: butt; stroke-dashoffset: 0; stroke-linejoin: miter; stroke-miterlimit: 4; fill: rgb(72,124,255); fill-rule: nonzero; opacity: 1;" vector-effect="non-scaling-stroke"  transform=" translate(-133.39, -118.15)" d="M 123.8636 131.86278 Q 123.254 131.86278 122.9492 131.50717999999998 Q 122.6952 131.15157999999997 122.7968 130.59277999999998 L 126.302 105.64997999999997 Q 126.3528 105.19277999999997 126.4544 105.09117999999997 Q 126.6068 104.93877999999997 127.01320000000001 104.93877999999997 L 133.0584 104.93877999999997 Q 133.9728 104.93877999999997 133.7696 106.00557999999997 L 133.414 108.29157999999997 L 133.414 108.49477999999996 Q 133.414 108.85037999999996 133.6172 108.85037999999996 Q 133.7696 108.85037999999996 134.0744 108.54557999999996 Q 135.8524 106.66597999999996 138.0368 105.54837999999995 Q 140.2212 104.43077999999996 141.9992 104.43077999999996 Q 143.066 104.43077999999996 143.574 104.58317999999996 Q 144.08200000000002 104.73557999999996 144.0312 105.19277999999996 L 143.2184 110.88237999999996 Q 143.1676 111.44117999999996 143.0152 111.59357999999996 Q 142.9136 111.74597999999996 142.6088 111.69517999999997 Q 140.8816 111.44117999999996 139.1544 111.44117999999996 Q 137.83360000000002 111.44117999999996 136.3604 112.15237999999997 Q 134.8872 112.81277999999996 133.8204 113.93037999999997 Q 132.80440000000002 114.99717999999997 132.65200000000002 116.06397999999997 L 130.56920000000002 130.89757999999998 Q 130.46760000000003 131.55798 130.2136 131.71038 Q 130.0104 131.86278 129.2484 131.86278 z" stroke-linecap="round" />
</g>
		<g transform="matrix(3.78 0 0 3.78 72.54 0)" id="path894"  >
<path style="stroke: none; stroke-width: 0.264583; stroke-dasharray: none; stroke-linecap: butt; stroke-dashoffset: 0; stroke-linejoin: miter; stroke-miterlimit: 4; fill: rgb(72,124,255); fill-rule: nonzero; opacity: 1;" vector-effect="non-scaling-stroke"  transform=" translate(-161.85, -113.02)" d="M 176.48129 130.08478 Q 176.93849 130.89758 176.93849 131.30398 Q 176.93849 131.60878 176.68449 131.76118 Q 176.43049000000002 131.86278 175.92249 131.86278 L 168.86129 131.86278 Q 168.25169 131.86278 167.89609 131.71038 Q 167.59129 131.55798 167.38808999999998 131.10078 L 161.74928999999997 119.36597999999998 Q 161.49528999999998 118.85797999999998 161.24128999999996 118.85797999999998 Q 161.08888999999996 118.85797999999998 160.68248999999997 119.41677999999999 L 151.64009 131.25318 Q 151.38609 131.65957999999998 151.03049 131.76118 Q 150.72569 131.86278 149.96368999999999 131.86278 L 144.02008999999998 131.86278 Q 143.00409 131.86278 143.00409 131.20237999999998 Q 143.00409 130.74517999999998 143.76609 129.67837999999998 L 156.77088999999998 113.37157999999998 Q 157.32968999999997 112.76197999999998 157.32968999999997 112.30477999999998 Q 157.32968999999997 111.94917999999998 157.22808999999998 111.74597999999997 L 148.74448999999998 95.18517799999998 Q 148.59208999999998 94.93117799999997 148.59208999999998 94.67717799999998 Q 148.59208999999998 94.16917799999999 149.35408999999999 94.16917799999999 L 156.77088999999998 94.16917799999999 Q 157.43129 94.16917799999999 157.68528999999998 94.32157799999999 Q 157.93928999999997 94.47397799999999 158.19329 94.98197799999998 L 163.12089 105.34517999999998 Q 163.27329 105.75157999999999 163.47649 105.75157999999999 Q 163.67969000000002 105.75157999999999 163.98449000000002 105.34517999999998 L 172.01089000000002 94.77877799999999 Q 172.31569000000002 94.37237799999998 172.56969 94.27077799999999 Q 172.87449 94.16917799999999 173.53489000000002 94.16917799999999 L 180.08809000000002 94.16917799999999 Q 180.69769000000002 94.16917799999999 180.69769000000002 94.727978 Q 180.69769000000002 95.134378 180.39289000000002 95.642378 L 167.79449000000002 111.28877999999999 Q 167.28649000000001 111.94917999999998 167.28649000000001 112.20317999999999 Q 167.28649000000001 112.40637999999998 167.43889000000001 112.71117999999998 z" stroke-linecap="round" />
</g>
		<g transform="matrix(3.78 0 0 3.78 218.06 0)" id="path896"  >
<path style="stroke: none; stroke-width: 0.264583; stroke-dasharray: none; stroke-linecap: butt; stroke-dashoffset: 0; stroke-linejoin: miter; stroke-miterlimit: 4; fill: rgb(72,124,255); fill-rule: nonzero; opacity: 1;" vector-effect="non-scaling-stroke"  transform=" translate(-200.35, -113.02)" d="M 218.11268 94.169178 Q 218.46828000000002 94.169178 218.56988 94.372378 Q 218.67148 94.524778 218.62068000000002 94.931178 L 213.48988000000003 131.30398 Q 213.43908000000002 131.65958 213.23588000000004 131.76118 Q 213.08348000000004 131.86278 212.67708000000005 131.86278 L 207.49548000000004 131.86278 Q 206.83508000000003 131.86278 206.32708000000005 131.04997999999998 L 193.22068000000004 108.34237999999998 Q 193.06828000000004 108.08837999999997 192.91588000000004 108.08837999999997 Q 192.61108000000004 108.08837999999997 192.56028000000003 108.64717999999998 L 189.41068000000004 131.04997999999998 Q 189.30908000000005 131.55798 189.10588000000004 131.71038 Q 188.95348000000004 131.86278 188.39468000000005 131.86278 L 182.80668000000006 131.86278 Q 181.99388000000005 131.86278 182.09548000000007 130.74517999999998 L 187.17548000000008 94.93117799999997 Q 187.27708000000007 94.42317799999998 187.3786800000001 94.32157799999997 Q 187.5310800000001 94.16917799999997 188.0390800000001 94.16917799999997 L 194.1858800000001 94.16917799999997 Q 194.69388000000012 94.16917799999997 194.9478800000001 94.42317799999998 Q 195.2526800000001 94.62637799999997 195.5066800000001 95.13437799999998 L 207.4954800000001 116.31797999999998 Q 207.7494800000001 116.72437999999998 208.0034800000001 116.72437999999998 Q 208.4098800000001 116.72437999999998 208.4606800000001 116.11477999999998 L 211.40708000000012 94.82957799999998 Q 211.45788000000013 94.42317799999998 211.61028000000013 94.32157799999999 Q 211.81348000000014 94.16917799999999 212.27068000000014 94.16917799999999 z" stroke-linecap="round" />
</g>
		<g transform="matrix(3.78 0 0 3.78 362.71 0)" id="path898"  >
<path style="stroke: none; stroke-width: 0.264583; stroke-dasharray: none; stroke-linecap: butt; stroke-dashoffset: 0; stroke-linejoin: miter; stroke-miterlimit: 4; fill: rgb(72,124,255); fill-rule: nonzero; opacity: 1;" vector-effect="non-scaling-stroke"  transform=" translate(-238.62, -113.02)" d="M 236.43958 132.37078 Q 231.86758 132.37078 228.51478 130.44038 Q 225.16198 128.50998 223.38398 125.00478000000001 Q 221.65678 121.44878000000001 221.65678 116.67358000000002 Q 221.65678 110.37438000000002 224.14598 105.14198000000002 Q 226.63518000000002 99.85877800000002 231.20718000000002 96.75997800000002 Q 235.77918000000003 93.66117800000002 241.72278000000003 93.66117800000002 Q 245.78678000000002 93.66117800000002 248.88558000000003 95.23597800000002 Q 252.03518000000003 96.81077800000001 253.76238000000004 99.40157800000001 Q 255.48958000000005 101.94158000000002 255.59118000000004 104.83718000000002 Q 255.59118000000004 105.34518000000001 255.48958000000005 105.59918000000002 Q 255.43878000000004 105.80238000000001 255.23558000000006 105.85318000000002 L 248.27598000000006 106.86918000000003 L 248.22518000000005 106.86918000000003 Q 248.02198000000004 106.86918000000003 247.86958000000004 106.61518000000002 Q 247.76798000000005 106.36118000000002 247.61558000000005 105.59918000000002 Q 247.25998000000004 103.05918000000001 245.68518000000006 101.48438000000002 Q 244.16118000000006 99.90957800000001 241.36718000000005 99.90957800000001 Q 237.76038000000005 99.90957800000001 235.37278000000003 102.55118000000002 Q 233.03598000000002 105.19278000000001 231.91838000000004 109.35838000000001 Q 230.80078000000003 113.47318000000001 230.80078000000003 117.94358000000001 Q 230.80078000000003 122.31238000000002 232.42638000000002 124.24278000000001 Q 234.10278000000002 126.12238 237.30318000000003 126.12238 Q 240.40198000000004 126.12238 242.53558000000004 124.39518000000001 Q 244.66918000000004 122.66798000000001 245.68518000000003 120.17878000000002 L 245.98998000000003 118.75638000000002 Q 246.14238000000003 118.50238000000002 246.14238000000003 118.40078000000003 Q 246.14238000000003 118.09598000000003 245.53278000000003 118.09598000000003 L 239.28438000000003 118.09598000000003 Q 238.97958000000003 118.09598000000003 238.87798000000004 117.99438000000002 Q 238.77638000000005 117.84198000000002 238.82718000000003 117.43558000000002 L 239.28438000000003 113.26998000000002 Q 239.33518000000004 112.71118000000001 239.79238000000004 112.71118000000001 L 254.32118000000003 112.76198000000001 Q 254.93078000000003 112.76198000000001 255.08318000000003 112.96518 Q 255.28638000000004 113.11758 255.18478000000002 113.62558 L 252.69558 131.20238 Q 252.64478 131.86278000000001 251.88278 131.86278000000001 L 250.35878 131.86278000000001 Q 249.90158 131.86278000000001 249.64758 131.71038000000001 Q 249.44438 131.55798000000001 249.29198 131.10078000000001 L 248.42838 127.39238000000002 Q 248.37758 127.13838000000001 248.07278 127.13838000000001 Q 247.76798 127.13838000000001 247.41237999999998 127.54478000000002 Q 245.73597999999998 129.62758000000002 243.04358 130.99918000000002 Q 240.35118 132.37078000000002 236.43957999999998 132.37078000000002 z" stroke-linecap="round" />
</g>
</g>
</g>
<g transform="matrix(0.04 0 0 0.04 450 76.02)" style="" id="519e59d8-06e6-4377-b334-06d432211cd2"  >
		<text xml:space="preserve" font-family="Raleway" font-size="105" font-style="normal" font-weight="900" style="stroke: none; stroke-width: 1; stroke-dasharray: none; stroke-linecap: butt; stroke-dashoffset: 0; stroke-linejoin: miter; stroke-miterlimit: 4; fill: rgb(0,0,0); fill-rule: nonzero; opacity: 1; white-space: pre;" ><tspan x="-282.13" y="32.98" >FONDNESS</tspan></text>
</g>
<g transform="matrix(NaN NaN NaN NaN 0 0)"  >
<g style=""   >
</g>
</g>
<g transform="matrix(NaN NaN NaN NaN 0 0)"  >
<g style=""   >
</g>
</g>
<g transform="matrix(NaN NaN NaN NaN 0 0)"  >
<g style=""   >
</g>
</g>
<g transform="matrix(NaN NaN NaN NaN 0 0)"  >
<g style=""   >
</g>
</g>
<g transform="matrix(NaN NaN NaN NaN 0 0)"  >
<g style=""   >
</g>
</g>
<g transform="matrix(0.26 0 0 0.26 146.02 66.72)" style="" id="f38a98bb-2c03-4832-a002-57a927b695f0"  >
		<text xml:space="preserve" font-family="Raleway" font-size="105" font-style="normal" font-weight="900" style="stroke: none; stroke-width: 1; stroke-dasharray: none; stroke-linecap: butt; stroke-dashoffset: 0; stroke-linejoin: miter; stroke-miterlimit: 4; fill: rgb(253,0,0); fill-rule: nonzero; opacity: 1; white-space: pre;" ><tspan x="-282.13" y="32.98" >FONDNESS</tspan></text>
</g>
</svg>